<mxfile host="app.diagrams.net" modified="2024-06-06T22:07:14.408Z" agent="Mozilla/5.0 (Windows NT 10.0; Win64; x64) AppleWebKit/537.36 (KHTML, like Gecko) Chrome/125.0.0.0 Safari/537.36" etag="vX5YetWJT35slcGFRu5A" version="24.5.0" type="device">
  <diagram name="Страница — 1" id="SibczQWO5aSj1uoqtic3">
    <mxGraphModel dx="2577" dy="870" grid="1" gridSize="10" guides="1" tooltips="1" connect="1" arrows="1" fold="1" page="1" pageScale="1" pageWidth="827" pageHeight="1169" math="0" shadow="0">
      <root>
        <mxCell id="0" />
        <mxCell id="1" parent="0" />
        <mxCell id="F-fLLnr7dW2wtxO9Jygy-3" style="edgeStyle=orthogonalEdgeStyle;rounded=0;orthogonalLoop=1;jettySize=auto;html=1;exitX=0.5;exitY=1;exitDx=0;exitDy=0;entryX=0.5;entryY=0;entryDx=0;entryDy=0;fontSize=16;" parent="1" source="F-fLLnr7dW2wtxO9Jygy-1" target="F-fLLnr7dW2wtxO9Jygy-2" edge="1">
          <mxGeometry relative="1" as="geometry" />
        </mxCell>
        <mxCell id="F-fLLnr7dW2wtxO9Jygy-1" value="interval(first_el, second_el)" style="rounded=1;whiteSpace=wrap;html=1;arcSize=0;fontSize=16;" parent="1" vertex="1">
          <mxGeometry x="40" y="20" width="200" height="60" as="geometry" />
        </mxCell>
        <mxCell id="F-fLLnr7dW2wtxO9Jygy-5" style="edgeStyle=orthogonalEdgeStyle;rounded=0;orthogonalLoop=1;jettySize=auto;html=1;exitX=0.5;exitY=1;exitDx=0;exitDy=0;entryX=0.5;entryY=0;entryDx=0;entryDy=0;fontSize=16;" parent="1" source="F-fLLnr7dW2wtxO9Jygy-2" target="F-fLLnr7dW2wtxO9Jygy-4" edge="1">
          <mxGeometry relative="1" as="geometry" />
        </mxCell>
        <mxCell id="F-fLLnr7dW2wtxO9Jygy-2" value="result = list()" style="rounded=0;whiteSpace=wrap;html=1;fontSize=16;" parent="1" vertex="1">
          <mxGeometry x="80" y="110" width="120" height="60" as="geometry" />
        </mxCell>
        <mxCell id="F-fLLnr7dW2wtxO9Jygy-7" style="edgeStyle=orthogonalEdgeStyle;rounded=0;orthogonalLoop=1;jettySize=auto;html=1;exitX=0.5;exitY=1;exitDx=0;exitDy=0;entryX=0.5;entryY=0;entryDx=0;entryDy=0;fontSize=16;" parent="1" source="F-fLLnr7dW2wtxO9Jygy-4" target="F-fLLnr7dW2wtxO9Jygy-6" edge="1">
          <mxGeometry relative="1" as="geometry" />
        </mxCell>
        <mxCell id="F-fLLnr7dW2wtxO9Jygy-4" value="count = 0" style="rounded=0;whiteSpace=wrap;html=1;fontSize=16;" parent="1" vertex="1">
          <mxGeometry x="80" y="200" width="120" height="60" as="geometry" />
        </mxCell>
        <mxCell id="F-fLLnr7dW2wtxO9Jygy-15" style="edgeStyle=orthogonalEdgeStyle;rounded=0;orthogonalLoop=1;jettySize=auto;html=1;exitX=0.5;exitY=1;exitDx=0;exitDy=0;entryX=0.5;entryY=0;entryDx=0;entryDy=0;fontSize=16;" parent="1" source="F-fLLnr7dW2wtxO9Jygy-6" target="F-fLLnr7dW2wtxO9Jygy-8" edge="1">
          <mxGeometry relative="1" as="geometry" />
        </mxCell>
        <mxCell id="F-fLLnr7dW2wtxO9Jygy-6" value="i in range(len(first_el)-1, -1, -1)" style="shape=loopLimit;whiteSpace=wrap;html=1;fontSize=16;" parent="1" vertex="1">
          <mxGeometry x="40" y="290" width="200" height="60" as="geometry" />
        </mxCell>
        <mxCell id="F-fLLnr7dW2wtxO9Jygy-11" style="edgeStyle=orthogonalEdgeStyle;rounded=0;orthogonalLoop=1;jettySize=auto;html=1;exitX=1;exitY=0.5;exitDx=0;exitDy=0;entryX=0;entryY=0.5;entryDx=0;entryDy=0;fontSize=16;" parent="1" source="F-fLLnr7dW2wtxO9Jygy-8" target="F-fLLnr7dW2wtxO9Jygy-10" edge="1">
          <mxGeometry relative="1" as="geometry" />
        </mxCell>
        <mxCell id="F-fLLnr7dW2wtxO9Jygy-12" value="Да" style="edgeLabel;html=1;align=center;verticalAlign=middle;resizable=0;points=[];fontSize=16;" parent="F-fLLnr7dW2wtxO9Jygy-11" vertex="1" connectable="0">
          <mxGeometry x="-0.2025" y="1" relative="1" as="geometry">
            <mxPoint y="-19" as="offset" />
          </mxGeometry>
        </mxCell>
        <mxCell id="F-fLLnr7dW2wtxO9Jygy-17" style="edgeStyle=orthogonalEdgeStyle;rounded=0;orthogonalLoop=1;jettySize=auto;html=1;exitX=0.5;exitY=1;exitDx=0;exitDy=0;entryX=0.5;entryY=0;entryDx=0;entryDy=0;fontSize=16;" parent="1" source="F-fLLnr7dW2wtxO9Jygy-8" target="F-fLLnr7dW2wtxO9Jygy-16" edge="1">
          <mxGeometry relative="1" as="geometry" />
        </mxCell>
        <mxCell id="F-fLLnr7dW2wtxO9Jygy-18" value="Нет" style="edgeLabel;html=1;align=center;verticalAlign=middle;resizable=0;points=[];fontSize=16;" parent="F-fLLnr7dW2wtxO9Jygy-17" vertex="1" connectable="0">
          <mxGeometry x="0.0824" y="-1" relative="1" as="geometry">
            <mxPoint x="-19" as="offset" />
          </mxGeometry>
        </mxCell>
        <mxCell id="F-fLLnr7dW2wtxO9Jygy-8" value="int(first_el[i] + int(second_el[i])+count == 3)" style="rhombus;whiteSpace=wrap;html=1;fontSize=16;" parent="1" vertex="1">
          <mxGeometry x="-53.75" y="380" width="387.5" height="80" as="geometry" />
        </mxCell>
        <mxCell id="F-fLLnr7dW2wtxO9Jygy-14" style="edgeStyle=orthogonalEdgeStyle;rounded=0;orthogonalLoop=1;jettySize=auto;html=1;exitX=0.5;exitY=1;exitDx=0;exitDy=0;entryX=0.5;entryY=0;entryDx=0;entryDy=0;fontSize=16;" parent="1" source="F-fLLnr7dW2wtxO9Jygy-10" target="F-fLLnr7dW2wtxO9Jygy-13" edge="1">
          <mxGeometry relative="1" as="geometry" />
        </mxCell>
        <mxCell id="F-fLLnr7dW2wtxO9Jygy-10" value="result.insert(0,1)" style="rounded=0;whiteSpace=wrap;html=1;fontSize=16;" parent="1" vertex="1">
          <mxGeometry x="420" y="390" width="120" height="60" as="geometry" />
        </mxCell>
        <mxCell id="F-fLLnr7dW2wtxO9Jygy-13" value="count = 1" style="rounded=0;whiteSpace=wrap;html=1;fontSize=16;" parent="1" vertex="1">
          <mxGeometry x="420" y="470" width="120" height="60" as="geometry" />
        </mxCell>
        <mxCell id="F-fLLnr7dW2wtxO9Jygy-26" style="edgeStyle=orthogonalEdgeStyle;rounded=0;orthogonalLoop=1;jettySize=auto;html=1;exitX=0.5;exitY=1;exitDx=0;exitDy=0;entryX=0.5;entryY=0;entryDx=0;entryDy=0;fontFamily=Helvetica;fontSize=16;fontColor=default;" parent="1" source="F-fLLnr7dW2wtxO9Jygy-16" target="F-fLLnr7dW2wtxO9Jygy-25" edge="1">
          <mxGeometry relative="1" as="geometry" />
        </mxCell>
        <mxCell id="F-fLLnr7dW2wtxO9Jygy-27" value="Нет" style="edgeLabel;html=1;align=center;verticalAlign=middle;resizable=0;points=[];rounded=0;strokeColor=default;fontFamily=Helvetica;fontSize=16;fontColor=default;fillColor=default;" parent="F-fLLnr7dW2wtxO9Jygy-26" vertex="1" connectable="0">
          <mxGeometry x="-0.0995" y="1" relative="1" as="geometry">
            <mxPoint x="-21" y="11" as="offset" />
          </mxGeometry>
        </mxCell>
        <mxCell id="F-fLLnr7dW2wtxO9Jygy-16" value="int(first_el[i] + int(second_el[i])+count == 2)" style="rhombus;whiteSpace=wrap;html=1;fontSize=16;" parent="1" vertex="1">
          <mxGeometry x="-53.75" y="560" width="387.5" height="80" as="geometry" />
        </mxCell>
        <mxCell id="F-fLLnr7dW2wtxO9Jygy-19" value="" style="endArrow=classic;html=1;rounded=0;fontSize=16;" parent="1" edge="1">
          <mxGeometry width="50" height="50" relative="1" as="geometry">
            <mxPoint x="480" y="530" as="sourcePoint" />
            <mxPoint x="140" y="540" as="targetPoint" />
            <Array as="points">
              <mxPoint x="480" y="540" />
            </Array>
          </mxGeometry>
        </mxCell>
        <mxCell id="F-fLLnr7dW2wtxO9Jygy-24" style="edgeStyle=orthogonalEdgeStyle;rounded=0;orthogonalLoop=1;jettySize=auto;html=1;exitX=0.5;exitY=1;exitDx=0;exitDy=0;entryX=0.5;entryY=0;entryDx=0;entryDy=0;fontFamily=Helvetica;fontSize=16;fontColor=default;" parent="1" source="F-fLLnr7dW2wtxO9Jygy-20" target="F-fLLnr7dW2wtxO9Jygy-21" edge="1">
          <mxGeometry relative="1" as="geometry" />
        </mxCell>
        <mxCell id="F-fLLnr7dW2wtxO9Jygy-20" value="result.insert(0,0)" style="rounded=0;whiteSpace=wrap;html=1;fontSize=16;" parent="1" vertex="1">
          <mxGeometry x="420" y="570" width="120" height="60" as="geometry" />
        </mxCell>
        <mxCell id="F-fLLnr7dW2wtxO9Jygy-21" value="count = 1" style="rounded=0;whiteSpace=wrap;html=1;fontSize=16;" parent="1" vertex="1">
          <mxGeometry x="420" y="650" width="120" height="60" as="geometry" />
        </mxCell>
        <mxCell id="F-fLLnr7dW2wtxO9Jygy-22" style="edgeStyle=orthogonalEdgeStyle;rounded=0;orthogonalLoop=1;jettySize=auto;html=1;exitX=1;exitY=0.5;exitDx=0;exitDy=0;entryX=0;entryY=0.5;entryDx=0;entryDy=0;fontSize=16;" parent="1" edge="1">
          <mxGeometry relative="1" as="geometry">
            <mxPoint x="334" y="599.41" as="sourcePoint" />
            <mxPoint x="420" y="599.41" as="targetPoint" />
          </mxGeometry>
        </mxCell>
        <mxCell id="F-fLLnr7dW2wtxO9Jygy-23" value="Да" style="edgeLabel;html=1;align=center;verticalAlign=middle;resizable=0;points=[];fontSize=16;" parent="F-fLLnr7dW2wtxO9Jygy-22" vertex="1" connectable="0">
          <mxGeometry x="-0.2025" y="1" relative="1" as="geometry">
            <mxPoint y="-19" as="offset" />
          </mxGeometry>
        </mxCell>
        <mxCell id="F-fLLnr7dW2wtxO9Jygy-37" style="edgeStyle=orthogonalEdgeStyle;rounded=0;orthogonalLoop=1;jettySize=auto;html=1;exitX=0.5;exitY=1;exitDx=0;exitDy=0;entryX=0.5;entryY=0;entryDx=0;entryDy=0;fontFamily=Helvetica;fontSize=16;fontColor=default;" parent="1" source="F-fLLnr7dW2wtxO9Jygy-25" target="F-fLLnr7dW2wtxO9Jygy-35" edge="1">
          <mxGeometry relative="1" as="geometry" />
        </mxCell>
        <mxCell id="F-fLLnr7dW2wtxO9Jygy-39" value="Нет" style="edgeLabel;html=1;align=center;verticalAlign=middle;resizable=0;points=[];rounded=0;strokeColor=default;fontFamily=Helvetica;fontSize=16;fontColor=default;fillColor=default;" parent="F-fLLnr7dW2wtxO9Jygy-37" vertex="1" connectable="0">
          <mxGeometry x="-0.2094" y="2" relative="1" as="geometry">
            <mxPoint x="-22" as="offset" />
          </mxGeometry>
        </mxCell>
        <mxCell id="F-fLLnr7dW2wtxO9Jygy-25" value="int(first_el[i] + int(second_el[i])+count == 1)" style="rhombus;whiteSpace=wrap;html=1;fontSize=16;" parent="1" vertex="1">
          <mxGeometry x="-53.75" y="750" width="387.5" height="80" as="geometry" />
        </mxCell>
        <mxCell id="F-fLLnr7dW2wtxO9Jygy-28" value="" style="endArrow=classic;html=1;rounded=0;fontSize=16;" parent="1" edge="1">
          <mxGeometry width="50" height="50" relative="1" as="geometry">
            <mxPoint x="480" y="710" as="sourcePoint" />
            <mxPoint x="140" y="720" as="targetPoint" />
            <Array as="points">
              <mxPoint x="480" y="720" />
            </Array>
          </mxGeometry>
        </mxCell>
        <mxCell id="F-fLLnr7dW2wtxO9Jygy-33" style="edgeStyle=orthogonalEdgeStyle;rounded=0;orthogonalLoop=1;jettySize=auto;html=1;exitX=0.5;exitY=1;exitDx=0;exitDy=0;entryX=0.5;entryY=0;entryDx=0;entryDy=0;fontFamily=Helvetica;fontSize=16;fontColor=default;" parent="1" source="F-fLLnr7dW2wtxO9Jygy-29" target="F-fLLnr7dW2wtxO9Jygy-30" edge="1">
          <mxGeometry relative="1" as="geometry" />
        </mxCell>
        <mxCell id="F-fLLnr7dW2wtxO9Jygy-29" value="result.insert(0,1)" style="rounded=0;whiteSpace=wrap;html=1;fontSize=16;" parent="1" vertex="1">
          <mxGeometry x="420" y="760" width="120" height="60" as="geometry" />
        </mxCell>
        <mxCell id="F-fLLnr7dW2wtxO9Jygy-30" value="count = 0" style="rounded=0;whiteSpace=wrap;html=1;fontSize=16;" parent="1" vertex="1">
          <mxGeometry x="420" y="840" width="120" height="60" as="geometry" />
        </mxCell>
        <mxCell id="F-fLLnr7dW2wtxO9Jygy-31" style="edgeStyle=orthogonalEdgeStyle;rounded=0;orthogonalLoop=1;jettySize=auto;html=1;exitX=1;exitY=0.5;exitDx=0;exitDy=0;entryX=0;entryY=0.5;entryDx=0;entryDy=0;fontSize=16;" parent="1" edge="1">
          <mxGeometry relative="1" as="geometry">
            <mxPoint x="334" y="789.41" as="sourcePoint" />
            <mxPoint x="420" y="789.41" as="targetPoint" />
          </mxGeometry>
        </mxCell>
        <mxCell id="F-fLLnr7dW2wtxO9Jygy-32" value="Да" style="edgeLabel;html=1;align=center;verticalAlign=middle;resizable=0;points=[];fontSize=16;" parent="F-fLLnr7dW2wtxO9Jygy-31" vertex="1" connectable="0">
          <mxGeometry x="-0.2025" y="1" relative="1" as="geometry">
            <mxPoint y="-19" as="offset" />
          </mxGeometry>
        </mxCell>
        <mxCell id="F-fLLnr7dW2wtxO9Jygy-38" style="edgeStyle=orthogonalEdgeStyle;rounded=0;orthogonalLoop=1;jettySize=auto;html=1;exitX=0.5;exitY=1;exitDx=0;exitDy=0;entryX=0.5;entryY=0;entryDx=0;entryDy=0;fontFamily=Helvetica;fontSize=16;fontColor=default;" parent="1" source="F-fLLnr7dW2wtxO9Jygy-35" target="F-fLLnr7dW2wtxO9Jygy-36" edge="1">
          <mxGeometry relative="1" as="geometry" />
        </mxCell>
        <mxCell id="F-fLLnr7dW2wtxO9Jygy-35" value="result.insert(0,0)" style="rounded=0;whiteSpace=wrap;html=1;fontSize=16;" parent="1" vertex="1">
          <mxGeometry x="80" y="880" width="120" height="60" as="geometry" />
        </mxCell>
        <mxCell id="DUaC-MWDJGnxpr20x-Eb-2" style="edgeStyle=orthogonalEdgeStyle;rounded=0;orthogonalLoop=1;jettySize=auto;html=1;exitX=0.5;exitY=1;exitDx=0;exitDy=0;entryX=0.5;entryY=1;entryDx=0;entryDy=0;fontSize=16;" parent="1" source="F-fLLnr7dW2wtxO9Jygy-36" target="DUaC-MWDJGnxpr20x-Eb-1" edge="1">
          <mxGeometry relative="1" as="geometry" />
        </mxCell>
        <mxCell id="F-fLLnr7dW2wtxO9Jygy-36" value="count = 0" style="rounded=0;whiteSpace=wrap;html=1;fontSize=16;" parent="1" vertex="1">
          <mxGeometry x="80" y="980" width="120" height="60" as="geometry" />
        </mxCell>
        <mxCell id="F-fLLnr7dW2wtxO9Jygy-40" value="" style="endArrow=classic;html=1;rounded=0;fontFamily=Helvetica;fontSize=16;fontColor=default;" parent="1" edge="1">
          <mxGeometry width="50" height="50" relative="1" as="geometry">
            <mxPoint x="480" y="900" as="sourcePoint" />
            <mxPoint x="140" y="850" as="targetPoint" />
            <Array as="points">
              <mxPoint x="480" y="950" />
              <mxPoint x="320" y="950" />
              <mxPoint x="320" y="850" />
            </Array>
          </mxGeometry>
        </mxCell>
        <mxCell id="F-fLLnr7dW2wtxO9Jygy-47" style="edgeStyle=orthogonalEdgeStyle;rounded=0;orthogonalLoop=1;jettySize=auto;html=1;exitX=0.5;exitY=1;exitDx=0;exitDy=0;entryX=0.5;entryY=0;entryDx=0;entryDy=0;fontFamily=Helvetica;fontSize=16;fontColor=default;" parent="1" source="F-fLLnr7dW2wtxO9Jygy-41" target="F-fLLnr7dW2wtxO9Jygy-46" edge="1">
          <mxGeometry relative="1" as="geometry" />
        </mxCell>
        <mxCell id="F-fLLnr7dW2wtxO9Jygy-48" value="Нет" style="edgeLabel;html=1;align=center;verticalAlign=middle;resizable=0;points=[];rounded=0;strokeColor=default;fontFamily=Helvetica;fontSize=16;fontColor=default;fillColor=default;" parent="F-fLLnr7dW2wtxO9Jygy-47" vertex="1" connectable="0">
          <mxGeometry x="-0.3882" y="-1" relative="1" as="geometry">
            <mxPoint x="-19" as="offset" />
          </mxGeometry>
        </mxCell>
        <mxCell id="F-fLLnr7dW2wtxO9Jygy-41" value="count == 1" style="rhombus;whiteSpace=wrap;html=1;fontSize=16;" parent="1" vertex="1">
          <mxGeometry x="53.129999999999995" y="1160" width="173.75" height="80" as="geometry" />
        </mxCell>
        <mxCell id="F-fLLnr7dW2wtxO9Jygy-43" value="result.insert(0,1)" style="rounded=0;whiteSpace=wrap;html=1;fontSize=16;" parent="1" vertex="1">
          <mxGeometry x="300" y="1170" width="120" height="60" as="geometry" />
        </mxCell>
        <mxCell id="F-fLLnr7dW2wtxO9Jygy-44" style="edgeStyle=orthogonalEdgeStyle;rounded=0;orthogonalLoop=1;jettySize=auto;html=1;exitX=1;exitY=0.5;exitDx=0;exitDy=0;fontSize=16;" parent="1" edge="1">
          <mxGeometry relative="1" as="geometry">
            <mxPoint x="226.88" y="1199.4099999999999" as="sourcePoint" />
            <mxPoint x="300" y="1200" as="targetPoint" />
          </mxGeometry>
        </mxCell>
        <mxCell id="F-fLLnr7dW2wtxO9Jygy-45" value="Да" style="edgeLabel;html=1;align=center;verticalAlign=middle;resizable=0;points=[];fontSize=16;" parent="F-fLLnr7dW2wtxO9Jygy-44" vertex="1" connectable="0">
          <mxGeometry x="-0.2025" y="1" relative="1" as="geometry">
            <mxPoint y="-19" as="offset" />
          </mxGeometry>
        </mxCell>
        <mxCell id="F-fLLnr7dW2wtxO9Jygy-46" value="return result" style="rounded=1;whiteSpace=wrap;html=1;strokeColor=default;align=center;verticalAlign=middle;fontFamily=Helvetica;fontSize=16;fontColor=default;fillColor=default;arcSize=0;" parent="1" vertex="1">
          <mxGeometry x="80" y="1280" width="120" height="60" as="geometry" />
        </mxCell>
        <mxCell id="F-fLLnr7dW2wtxO9Jygy-49" value="" style="endArrow=classic;html=1;rounded=0;fontFamily=Helvetica;fontSize=16;fontColor=default;" parent="1" edge="1">
          <mxGeometry width="50" height="50" relative="1" as="geometry">
            <mxPoint x="360" y="1230" as="sourcePoint" />
            <mxPoint x="140" y="1260" as="targetPoint" />
            <Array as="points">
              <mxPoint x="360" y="1260" />
            </Array>
          </mxGeometry>
        </mxCell>
        <mxCell id="DUaC-MWDJGnxpr20x-Eb-3" style="edgeStyle=orthogonalEdgeStyle;rounded=0;orthogonalLoop=1;jettySize=auto;html=1;exitX=0.5;exitY=0;exitDx=0;exitDy=0;entryX=0.5;entryY=0;entryDx=0;entryDy=0;fontSize=16;" parent="1" source="DUaC-MWDJGnxpr20x-Eb-1" target="F-fLLnr7dW2wtxO9Jygy-41" edge="1">
          <mxGeometry relative="1" as="geometry" />
        </mxCell>
        <mxCell id="DUaC-MWDJGnxpr20x-Eb-1" value="i in range(len(first_el)-1, -1, -1)" style="shape=loopLimit;whiteSpace=wrap;html=1;fontSize=16;direction=west;" parent="1" vertex="1">
          <mxGeometry x="40" y="1060" width="200" height="60" as="geometry" />
        </mxCell>
      </root>
    </mxGraphModel>
  </diagram>
</mxfile>
